HIERARCHY
ROOT Hips
{
	OFFSET	0.00	0.00	0.00
	CHANNELS 6 Xposition Yposition Zposition Zrotation Xrotation Yrotation
	JOINT Spine
	{
		OFFSET	 0.00	0.01	 0.00
		CHANNELS 3 Zrotation Xrotation Yrotation
		JOINT Spine1
		{
			OFFSET	 0.00	 2.45913012437421	 0.00
			CHANNELS 3 Zrotation Xrotation Yrotation
            JOINT Neck
            {
                OFFSET	 0.00	 2.48462964506057	 0.00
                CHANNELS 3 Zrotation Xrotation Yrotation
                JOINT Head
                {
                    OFFSET	 0.00	 0.927524780924562	 0.00
                    CHANNELS 3 Zrotation Xrotation Yrotation
                    End Site 
                    {
                        OFFSET	 0.00	 1.14999962169752	 0.00
                    }
                }
            }
			JOINT LeftShoulder
			{
				OFFSET	 0.00	 2.48462964506057	 0.00
				CHANNELS 3 Zrotation Xrotation Yrotation
				JOINT LeftUpArm
				{
					OFFSET	 0.00	 1.24881979654096	 0.00
					CHANNELS 3 Zrotation Xrotation Yrotation
					JOINT LeftForeArm
					{
						OFFSET	 0.00	2.59758046908119	 0.00
						CHANNELS 3 Zrotation Xrotation Yrotation
						JOINT LeftHand
						{
							OFFSET	 0.00	2.45542024364365	 0.00
							CHANNELS 3 Zrotation Xrotation Yrotation
							JOINT LeftHandThumb 
							{
								OFFSET	 0.00	0.00	 0.00
								CHANNELS 3 Zrotation Xrotation Yrotation
								End Site
								{
									OFFSET	 0.00	0.00	1.00000003353624
								}
							}
							JOINT L_Wrist_End 
							{
								OFFSET	 0.00	0.99999967115358	 0.00
								CHANNELS 3 Zrotation Xrotation Yrotation
								End Site 
								{
									OFFSET	 0.00	 0.00	 0.00
								}
							}
						}
					}
				}
			}
			JOINT RightShoulder
			{
				OFFSET	 0.00	 2.48462964506057	 0.00
				CHANNELS 3 Zrotation Xrotation Yrotation
				JOINT RightUpArm
				{
					OFFSET	 0.00	 1.24881979654096	 0.00
					CHANNELS 3 Zrotation Xrotation Yrotation
					JOINT RightForeArm
					{
						OFFSET	 0.00	2.59758046908119	 0.00
						CHANNELS 3 Zrotation Xrotation Yrotation
						JOINT RightHand
						{
							OFFSET	 0.00	2.45542024364365	 0.00
							CHANNELS 3 Zrotation Xrotation Yrotation
							JOINT RightHandThumb 
							{
								OFFSET	 0.00	0.00	 0.00
								CHANNELS 3 Zrotation Xrotation Yrotation
								End Site
								{
									OFFSET	 0.00	0.00	1.00000003353624
								}
							}
							JOINT R_Wrist_End 
							{
								OFFSET	 0.00	0.99999967115358	 0.00
								CHANNELS 3 Zrotation Xrotation Yrotation
								End Site 
								{
									OFFSET	 0.00	 0.00	 0.00
								}
							}
						}
					}
				}
			}
		}
	}
	JOINT LeftUpLeg
	{
		OFFSET	 1.2719394002717	 0.00	 0.00
		CHANNELS 3 Zrotation Xrotation Yrotation
		JOINT LeftLowLeg
		{
			OFFSET	 0.00	-4.3429100912261	 0.00
			CHANNELS 3 Zrotation Xrotation Yrotation
			JOINT LeftFoot
			{
				OFFSET	 0.00	-4.48767017425826	 0.00
				CHANNELS 3 Zrotation Xrotation Yrotation
				JOINT LeftToeBase
                {
                    OFFSET	 0.00	0.00	 1.51507020887566
                    CHANNELS 3 Zrotation Xrotation Yrotation
                    End Site 
                    {
                        OFFSET	 0.00	0.00	 0.75000010571191
                    }
                }
			}
		}
	}
	JOINT RightUpLeg
	{
		OFFSET	 -1.2719393604653	 0.00	 0.00
		CHANNELS 3 Zrotation Xrotation Yrotation
		JOINT RightLowLeg
		{
			OFFSET	 0.00	-4.3429100912261	 0.00
			CHANNELS 3 Zrotation Xrotation Yrotation
			JOINT RightFoot
			{
				OFFSET	 0.00	-4.48767017425826	 0.00
				CHANNELS 3 Zrotation Xrotation Yrotation
				JOINT RightToeBase
                {
                    OFFSET	 0.00	0.00	 1.51507020887566
                    CHANNELS 3 Zrotation Xrotation Yrotation
                    End Site 
                    {
                        OFFSET	 0.00	0.00	 0.749999965609858
                    }
                }   
			}
		}
	}
}
MOTION 
Frames:	13 
Frame Time: 0.02 
 3.7147900390625 5.718140258789062 10.56800048828125 -88.5466 83.5799 74.8628 8.16445 -22.9834 0.399947 -5.00485 34.2438 -0.565926 -20.5711 36.725 24.1408 13.8793 -57.6931 25.7721 -117.2174 -0.533101 -9.43792 -36.5665 -7.20413 29.4993 0.0 24.5151 0.0 5.89482 -8.79484 -1.22415 0.0 0.0 0.0 0.0 0.0 0.0 120.4199 -0.221839 4.77247 41.3339 1.0389 -22.4044 0.0 25.7427 0.0 -5.03391 -1.28936 9.86624 0.0 0.0 0.0 0.0 0.0 0.0 7.43145 12.2297 16.7202 0.0 2.30802 0.0 -9.37918 5.28456 8.50176 0.0 -10.50778 0.0 9.20124 7.75764 13.1738 0.0 7.09986 0.0 18.2139 9.28201 -22.2514 0.0 -13.2272 0.0 
  3.7192498779296876 5.7153997802734375 10.5681005859375 -88.1313 83.5987 74.6334 8.09598 -23.0386 0.345838 -4.87308 34.2169 -0.496505 -20.4134 36.6257 23.8994 13.9792 -57.8594 25.5112 -117.2769 -0.492346 -9.33 -36.5633 -6.92949 29.6844 0.0 25.1324 0.0 5.83357 -8.97313 -1.83026 0.0 0.0 0.0 0.0 0.0 0.0 120.3242 -0.145771 4.76649 41.465 1.05572 -22.5724 0.0 25.5772 0.0 -4.84856 -1.32273 9.55462 0.0 0.0 0.0 0.0 0.0 0.0 7.4038 12.2547 16.5707 0.0 2.25131 0.0 -9.34613 5.3189297 8.47886 0.0 -10.4932995 0.0 9.17622 7.79779 13.106 0.0 7.1182 0.0 18.2709 9.20513 -22.3336 0.0 -13.22843 0.0 
  3.724590148925781 5.71322998046875 10.568199462890625 -87.5486 83.6006 74.255 8.05978 -23.0891 0.321754 -4.74594 34.2474 -0.411341 -20.2205 36.478 23.5922 13.9886 -58.0375 25.1604 -117.356705 -0.36198 -9.3579 -36.5169 -6.61262 30.1273 0.0 25.6693 0.0 5.99038 -9.00685 -2.12156 0.0 0.0 0.0 0.0 0.0 0.0 120.1983 -0.0561818 4.69837 41.5977 1.11669 -22.8081 0.0 25.421 0.0 -4.55529 -1.45111 9.13778 0.0 0.0 0.0 0.0 0.0 0.0 7.39708 12.2596 16.2075 0.0 2.27393 0.0 -9.33748 5.27262 8.61655 0.0 -10.46264 0.0 9.1646 7.84556 13.0404 0.0 7.15601 0.0 18.3226 9.127649 -22.4362 0.0 -13.19439 0.0 
  3.7310800170898437 5.711300048828125 10.568800048828125 -86.7413 83.6269 73.7194 8.08358 -23.1385 0.36786 -4.79673 34.3102 -0.375738 -19.8887 36.2608 23.2084 14.0915 -58.1332 24.8741 -117.3729 -0.230563 -9.38117 -36.4276 -6.15661 30.6875 0.0 26.1582 0.0 6.31068 -8.95928 -2.33589 0.0 0.0 0.0 0.0 0.0 0.0 120.19 0.0303231 4.60108 41.6951 1.21512 -23.046 0.0 25.2696 0.0 -4.34338 -1.23646 9.06216 0.0 0.0 0.0 0.0 0.0 0.0 7.35573 12.3031 16.1719 0.0 2.19021 0.0 -9.24645 5.37506 8.42802 0.0 -10.46404 0.0 9.12844 7.91894 12.9882 0.0 7.17504 0.0 18.4001 9.0175495 -22.6131 0.0 -13.17937 0.0 
  3.7385400390625 5.7108697509765625 10.568900146484374 -86.1016 83.664 73.3905 8.13902 -23.1824 0.44976 -4.89829 34.3525 -0.352071 -19.4972 36.0979 22.7324 14.2043 -58.2591 24.6746 -117.3884 -0.0147658 -9.41693 -36.2852 -5.70512 31.2518 0.0 26.6903 0.0 6.7863 -8.86943 -1.87375 0.0 0.0 0.0 0.0 0.0 0.0 120.1859 0.115122 4.58095 41.7923 1.22912 -23.4249 0.0 25.1732 0.0 -4.13192 -1.30633 8.9714 0.0 0.0 0.0 0.0 0.0 0.0 7.31419 12.3093 16.4195 0.0 2.08339 0.0 -9.1 5.54628 7.95729 0.0 -10.52784 0.0 9.07636 7.96161 12.7213 0.0 7.19113 0.0 18.4296 8.95656 -22.6207 0.0 -13.18841 0.0 
  3.7457501220703127 5.711069946289062 10.56949951171875 -85.2795 83.7128 72.8979 8.2522 -23.2536 0.620551 -5.15217 34.4914 -0.316792 -18.9283 35.8746 22.1143 14.3489 -58.3503 24.6039 -117.2862 0.225827 -9.43868 -36.1718 -5.16214 31.7777 0.0 27.2608 0.0 7.31046 -8.74277 -1.09369 0.0 0.0 0.0 0.0 0.0 0.0 120.2343 0.184925 4.60227 41.9118 1.23134 -23.7941 0.0 25.1928 0.0 -3.81342 -1.55777 8.4994 0.0 0.0 0.0 0.0 0.0 0.0 7.27107 12.2451 16.1412 0.0 2.15268 0.0 -9.0307 5.5421696 7.96131 0.0 -10.48236 0.0 9.01546 8.02834 12.503 0.0 7.18556 0.0 18.4625 8.87915 -22.6992 0.0 -13.16234 0.0 
  3.753240051269531 5.710999755859375 10.5697998046875 -84.4426 83.7799 72.4258 8.26452 -23.3026 0.666779 -5.2942 34.5774 -0.311229 -18.5344 35.6907 21.6605 14.4554 -58.4663 24.467 -117.2393 0.378998 -9.40445 -36.1029 -4.52149 32.1655 0.0 27.8003 0.0 7.88174 -8.38696 -0.5963 0.0 0.0 0.0 0.0 0.0 0.0 120.2494 0.281714 4.56558 41.9767 1.23777 -24.1225 0.0 25.2044 0.0 -3.77982 -1.38898 8.55271 0.0 0.0 0.0 0.0 0.0 0.0 7.2059 12.2164 16.0552 0.0 2.11342 0.0 -8.8986 5.6537704 7.76132 0.0 -10.52273 0.0 8.93749 8.10014 12.2502 0.0 7.1646 0.0 18.506 8.777081 -22.773 0.0 -13.12544 0.0 
  3.7606600952148437 5.71031005859375 10.57 -83.5857 83.8394 71.9751 8.25803 -23.3317 0.697242 -5.39162 34.6025 -0.298461 -18.1795 35.5399 21.202 14.5695 -58.5947 24.2225 -117.218704 0.590459 -9.30287 -36.0196 -3.93186 32.2997 0.0 28.4993 0.0 8.31074 -8.26623 0.101797 0.0 0.0 0.0 0.0 0.0 0.0 120.2583 0.269429 4.5467 42.0301 1.24848 -24.4761 0.0 25.2376 0.0 -3.75854 -1.3658 8.50888 0.0 0.0 0.0 0.0 0.0 0.0 7.15683 12.1941 15.7532 0.0 2.0608 0.0 -8.81738 5.7323303 7.68826 0.0 -10.541389 0.0 8.86464 8.20339 11.9034 0.0 7.08825 0.0 18.5256 8.720961 -22.8071 0.0 -13.11571 0.0 
  3.7686898803710935 5.709559936523437 10.568399658203125 -82.4436 83.8792 71.2232 8.43822 -23.1078 0.935948 -5.7521 34.2432 -0.430801 -17.8041 35.7171 20.7596 15.0938 -58.8526 24.5642 -117.1138 0.646358 -9.13459 -35.8346 -3.42941 32.3965 0.0 29.2926 0.0 8.80381 -8.05503 0.711131 0.0 0.0 0.0 0.0 0.0 0.0 120.5349 0.226134 4.30433 41.9388 1.26557 -24.7771 0.0 25.3141 0.0 -3.71953 -1.38247 8.48352 0.0 0.0 0.0 0.0 0.0 0.0 7.10681 12.2113 15.4342 0.0 2.00955 0.0 -8.75509 5.75603 7.63948 0.0 -10.56275 0.0 8.8089 8.34323 11.7994 0.0 7.02569 0.0 18.6167 8.532619 -23.0231 0.0 -13.07148 0.0 
  3.7769500732421877 5.710859985351562 10.569000244140625 -81.8294 83.9276 70.9681 8.44018 -23.0976 0.94621 -5.81643 34.2155 -0.458366 -17.6049 35.6096 20.4651 15.1743 -59.0034 24.3347 -117.1019 0.779144 -9.12375 -35.774 -2.96981 32.339 0.0 30.1695 0.0 9.36827 -7.92017 1.3091 0.0 0.0 0.0 0.0 0.0 0.0 120.5205 0.244131 4.25266 41.9675 1.27938 -24.9966 0.0 25.4101 0.0 -3.75382 -1.36162 8.49155 0.0 0.0 0.0 0.0 0.0 0.0 7.06026 12.1592 15.221 0.0 1.9668 0.0 -8.66576 5.8296404 7.55475 0.0 -10.5655 0.0 8.74935 8.40139 11.5772 0.0 6.97194 0.0 18.68 8.467831 -23.1113 0.0 -13.06928 0.0 
  3.786029968261719 5.712020263671875 10.5702001953125 -81.1874 83.9786 70.714 8.44819 -23.0896 0.947421 -5.91726 34.1926 -0.525606 -17.4077 35.5246 20.2009 15.3048 -59.1497 24.2011 -117.0608 0.861943 -9.07624 -35.7034 -2.53567 32.1565 0.0 31.1485 0.0 9.7827 -7.6929 1.32801 0.0 0.0 0.0 0.0 0.0 0.0 120.496704 0.262132 4.22056 42.0157 1.31876 -25.1731 0.0 25.4643 0.0 -3.70817 -1.31165 8.4649 0.0 0.0 0.0 0.0 0.0 0.0 7.01304 12.1048 14.9277 0.0 1.91987 0.0 -8.58061 5.91848 7.50131 0.0 -10.57239 0.0 8.69364 8.43534 11.4041 0.0 6.97225 0.0 18.7681 8.37133 -23.2547 0.0 -13.05535 0.0 
  3.7950799560546873 5.7144097900390625 10.570899658203125 -80.83 84.0281 70.6251 8.516 -23.0347 1.03449 -6.05912 34.0868 -0.573871 -17.2259 35.4699 19.9728 15.4673 -59.305 24.1652 -117.0082 0.902992 -9.04361 -35.6278 -2.17523 31.9755 0.0 32.2092 0.0 10.2751 -7.54572 1.25603 0.0 0.0 0.0 0.0 0.0 0.0 120.5225 0.274113 4.19056 42.0068 1.32506 -25.3915 0.0 25.5558 0.0 -3.76838 -1.41823 8.4161 0.0 0.0 0.0 0.0 0.0 0.0 6.94965 12.0651 14.7073 0.0 1.83933 0.0 -8.5271 5.99854 7.48253 0.0 -10.56796 0.0 8.63702 8.41276 11.3175 0.0 7.01739 0.0 18.8519 8.26824 -23.3721 0.0 -13.02553 0.0 
  3.8037200927734376 5.71635986328125 10.571800537109375 -80.4579 84.0594 70.5363 8.52845 -22.9868 1.05035 -6.11487 33.9874 -0.621471 -17.0231 35.4738 19.6704 15.5735 -59.4697 24.1363 -116.9667 0.945209 -9.03768 -35.5622 -1.89797 31.8161 0.0 33.2895 0.0 10.8035 -7.31541 0.885208 0.0 0.0 0.0 0.0 0.0 0.0 120.5182 0.279785 4.15415 41.981 1.35751 -25.5571 0.0 25.6094 0.0 -3.82114 -1.24355 8.42899 0.0 0.0 0.0 0.0 0.0 0.0 6.91268 12.014 14.6146 0.0 1.7943 0.0 -8.43352 6.0826902 7.33748 0.0 -10.5848 0.0 8.59804 8.40405 11.2226 0.0 7.04973 0.0 18.9548 8.1881 -23.4941 0.0 -13.0425 0.0 
